<?xml version="1.0" encoding="utf-8"?>
<!-- Generator: Adobe Illustrator 24.0.2, SVG Export Plug-In . SVG Version: 6.00 Build 0)  -->
<svg version="1.1" id="Layer_1" xmlns="http://www.w3.org/2000/svg" xmlns:xlink="http://www.w3.org/1999/xlink" x="0px" y="0px"
	 viewBox="0 0 500 1001" style="enable-background:new 0 0 500 1001;" xml:space="preserve">
<style type="text/css">
	.st0{fill:#625D43;}
	.st1{fill:#323221;}
	.st2{fill:#27211E;}
	.st3{fill:#CCA26D;}
</style>
<g>
	<g>
		<path class="st0" d="M129.28,323.28c0,0,0.37-4.77,2.12-6.78c1.76,2.01,2.13,6.78,2.13,6.78H129.28z"/>
		<path class="st0" d="M126.86,323.28c0,0-0.37-4.77-2.12-6.78c-1.76,2.01-2.13,6.78-2.13,6.78H126.86z"/>
		<path class="st1" d="M135.71,324.28c0-10.63-7.64-14.57-7.64-14.57v1.17c0,0,6.49,3.68,6.49,12.39h-6.03
			c0-9.96,7.18-13.02,7.18-13.02v-1.17c0,0-6.98,2.43-7.64,11.84c-0.67-9.42-7.65-11.84-7.65-11.84v1.17c0,0,7.18,3.06,7.18,13.02
			h-5.99c0-8.71,6.45-12.39,6.45-12.39v-1.17c0,0-7.65,3.93-7.65,14.57H135.71z"/>
	</g>
	<g>
		<path class="st0" d="M144.57,323.28c0,0,0.37-4.77,2.12-6.78c1.76,2.01,2.12,6.78,2.12,6.78H144.57z"/>
		<path class="st0" d="M142.15,323.28c0,0-0.37-4.77-2.12-6.78c-1.76,2.01-2.12,6.78-2.12,6.78H142.15z"/>
		<path class="st1" d="M151.01,324.28c0-10.63-7.65-14.57-7.65-14.57v1.17c0,0,6.49,3.68,6.49,12.39h-6.03
			c0-9.96,7.18-13.02,7.18-13.02v-1.17c0,0-6.98,2.43-7.65,11.84c-0.67-9.42-7.64-11.84-7.64-11.84v1.17c0,0,7.18,3.06,7.18,13.02
			h-5.99c0-8.71,6.45-12.39,6.45-12.39v-1.17c0,0-7.64,3.93-7.64,14.57H151.01z"/>
	</g>
	<g>
		<path class="st0" d="M159.87,323.28c0,0,0.37-4.77,2.12-6.78c1.76,2.01,2.12,6.78,2.12,6.78H159.87z"/>
		<path class="st0" d="M157.44,323.28c0,0-0.37-4.77-2.12-6.78c-1.76,2.01-2.12,6.78-2.12,6.78H157.44z"/>
		<path class="st1" d="M166.3,324.28c0-10.63-7.64-14.57-7.64-14.57v1.17c0,0,6.49,3.68,6.49,12.39h-6.03
			c0-9.96,7.18-13.02,7.18-13.02v-1.17c0,0-6.97,2.43-7.64,11.84c-0.67-9.42-7.65-11.84-7.65-11.84v1.17c0,0,7.19,3.06,7.19,13.02
			h-5.99c0-8.71,6.45-12.39,6.45-12.39v-1.17c0,0-7.65,3.93-7.65,14.57H166.3z"/>
	</g>
	<g>
		<path class="st0" d="M175.16,323.28c0,0,0.37-4.77,2.12-6.78c1.76,2.01,2.12,6.78,2.12,6.78H175.16z"/>
		<path class="st0" d="M172.73,323.28c0,0-0.37-4.77-2.12-6.78c-1.76,2.01-2.12,6.78-2.12,6.78H172.73z"/>
		<path class="st1" d="M181.59,324.28c0-10.63-7.64-14.57-7.64-14.57v1.17c0,0,6.49,3.68,6.49,12.39h-6.03
			c0-9.96,7.18-13.02,7.18-13.02v-1.17c0,0-6.97,2.43-7.64,11.84c-0.67-9.42-7.65-11.84-7.65-11.84v1.17c0,0,7.19,3.06,7.19,13.02
			h-5.99c0-8.71,6.45-12.39,6.45-12.39v-1.17c0,0-7.65,3.93-7.65,14.57H181.59z"/>
	</g>
	<g>
		<path class="st0" d="M190.45,323.28c0,0,0.37-4.77,2.12-6.78c1.76,2.01,2.12,6.78,2.12,6.78H190.45z"/>
		<path class="st0" d="M188.03,323.28c0,0-0.37-4.77-2.12-6.78c-1.76,2.01-2.12,6.78-2.12,6.78H188.03z"/>
		<path class="st1" d="M196.88,324.28c0-10.63-7.64-14.57-7.64-14.57v1.17c0,0,6.49,3.68,6.49,12.39h-6.03
			c0-9.96,7.18-13.02,7.18-13.02v-1.17c0,0-6.98,2.43-7.64,11.84c-0.67-9.42-7.65-11.84-7.65-11.84v1.17c0,0,7.18,3.06,7.18,13.02
			h-5.98c0-8.71,6.45-12.39,6.45-12.39v-1.17c0,0-7.65,3.93-7.65,14.57H196.88z"/>
	</g>
	<g>
		<path class="st0" d="M205.75,323.28c0,0,0.37-4.77,2.12-6.78c1.76,2.01,2.12,6.78,2.12,6.78H205.75z"/>
		<path class="st0" d="M203.32,323.28c0,0-0.37-4.77-2.12-6.78c-1.76,2.01-2.12,6.78-2.12,6.78H203.32z"/>
		<path class="st1" d="M212.18,324.28c0-10.63-7.64-14.57-7.64-14.57v1.17c0,0,6.49,3.68,6.49,12.39h-6.03
			c0-9.96,7.18-13.02,7.18-13.02v-1.17c0,0-6.98,2.43-7.64,11.84c-0.67-9.42-7.65-11.84-7.65-11.84v1.17c0,0,7.18,3.06,7.18,13.02
			h-5.99c0-8.71,6.45-12.39,6.45-12.39v-1.17c0,0-7.65,3.93-7.65,14.57H212.18z"/>
	</g>
	<g>
		<path class="st0" d="M221.04,323.28c0,0,0.37-4.77,2.12-6.78c1.76,2.01,2.12,6.78,2.12,6.78H221.04z"/>
		<path class="st0" d="M218.61,323.28c0,0-0.37-4.77-2.12-6.78c-1.76,2.01-2.12,6.78-2.12,6.78H218.61z"/>
		<path class="st1" d="M227.47,324.28c0-10.63-7.65-14.57-7.65-14.57v1.17c0,0,6.49,3.68,6.49,12.39h-6.03
			c0-9.96,7.18-13.02,7.18-13.02v-1.17c0,0-6.98,2.43-7.65,11.84c-0.67-9.42-7.65-11.84-7.65-11.84v1.17c0,0,7.19,3.06,7.19,13.02
			h-5.99c0-8.71,6.45-12.39,6.45-12.39v-1.17c0,0-7.65,3.93-7.65,14.57H227.47z"/>
	</g>
	<g>
		<path class="st0" d="M236.33,323.28c0,0,0.37-4.77,2.12-6.78c1.76,2.01,2.12,6.78,2.12,6.78H236.33z"/>
		<path class="st0" d="M233.9,323.28c0,0-0.37-4.77-2.12-6.78c-1.76,2.01-2.12,6.78-2.12,6.78H233.9z"/>
		<path class="st1" d="M242.76,324.28c0-10.63-7.65-14.57-7.65-14.57v1.17c0,0,6.49,3.68,6.49,12.39h-6.03
			c0-9.96,7.19-13.02,7.19-13.02v-1.17c0,0-6.98,2.43-7.65,11.84c-0.67-9.42-7.65-11.84-7.65-11.84v1.17c0,0,7.19,3.06,7.19,13.02
			h-5.99c0-8.71,6.45-12.39,6.45-12.39v-1.17c0,0-7.65,3.93-7.65,14.57H242.76z"/>
	</g>
	<g>
		<path class="st0" d="M251.62,323.28c0,0,0.37-4.77,2.12-6.78c1.76,2.01,2.12,6.78,2.12,6.78H251.62z"/>
		<path class="st0" d="M249.2,323.28c0,0-0.37-4.77-2.12-6.78c-1.76,2.01-2.12,6.78-2.12,6.78H249.2z"/>
		<path class="st1" d="M258.06,324.28c0-10.63-7.64-14.57-7.64-14.57v1.17c0,0,6.49,3.68,6.49,12.39h-6.03
			c0-9.96,7.18-13.02,7.18-13.02v-1.17c0,0-6.97,2.43-7.64,11.84c-0.67-9.42-7.65-11.84-7.65-11.84v1.17c0,0,7.19,3.06,7.19,13.02
			h-5.99c0-8.71,6.45-12.39,6.45-12.39v-1.17c0,0-7.65,3.93-7.65,14.57H258.06z"/>
	</g>
	<g>
		<path class="st0" d="M266.92,323.28c0,0,0.37-4.77,2.12-6.78c1.76,2.01,2.12,6.78,2.12,6.78H266.92z"/>
		<path class="st0" d="M264.49,323.28c0,0-0.37-4.77-2.12-6.78c-1.76,2.01-2.12,6.78-2.12,6.78H264.49z"/>
		<path class="st1" d="M273.35,324.28c0-10.63-7.64-14.57-7.64-14.57v1.17c0,0,6.49,3.68,6.49,12.39h-6.03
			c0-9.96,7.18-13.02,7.18-13.02v-1.17c0,0-6.98,2.43-7.64,11.84c-0.67-9.42-7.65-11.84-7.65-11.84v1.17c0,0,7.18,3.06,7.18,13.02
			h-5.99c0-8.71,6.45-12.39,6.45-12.39v-1.17c0,0-7.65,3.93-7.65,14.57H273.35z"/>
	</g>
	<g>
		<path class="st0" d="M282.21,323.28c0,0,0.37-4.77,2.12-6.78c1.76,2.01,2.12,6.78,2.12,6.78H282.21z"/>
		<path class="st0" d="M279.78,323.28c0,0-0.37-4.77-2.12-6.78c-1.76,2.01-2.12,6.78-2.12,6.78H279.78z"/>
		<path class="st1" d="M288.64,324.28c0-10.63-7.64-14.57-7.64-14.57v1.17c0,0,6.49,3.68,6.49,12.39h-6.03
			c0-9.96,7.18-13.02,7.18-13.02v-1.17c0,0-6.98,2.43-7.64,11.84c-0.67-9.42-7.65-11.84-7.65-11.84v1.17c0,0,7.18,3.06,7.18,13.02
			h-5.99c0-8.71,6.45-12.39,6.45-12.39v-1.17c0,0-7.65,3.93-7.65,14.57H288.64z"/>
	</g>
	<g>
		<path class="st0" d="M297.5,323.28c0,0,0.37-4.77,2.12-6.78c1.76,2.01,2.12,6.78,2.12,6.78H297.5z"/>
		<path class="st0" d="M295.07,323.28c0,0-0.37-4.77-2.12-6.78c-1.76,2.01-2.12,6.78-2.12,6.78H295.07z"/>
		<path class="st1" d="M303.93,324.28c0-10.63-7.65-14.57-7.65-14.57v1.17c0,0,6.49,3.68,6.49,12.39h-6.03
			c0-9.96,7.18-13.02,7.18-13.02v-1.17c0,0-6.98,2.43-7.65,11.84c-0.67-9.42-7.64-11.84-7.64-11.84v1.17c0,0,7.18,3.06,7.18,13.02
			h-5.99c0-8.71,6.45-12.39,6.45-12.39v-1.17c0,0-7.64,3.93-7.64,14.57H303.93z"/>
	</g>
	<g>
		<path class="st0" d="M312.8,323.28c0,0,0.37-4.77,2.12-6.78c1.76,2.01,2.12,6.78,2.12,6.78H312.8z"/>
		<path class="st0" d="M310.37,323.28c0,0-0.37-4.77-2.12-6.78c-1.76,2.01-2.12,6.78-2.12,6.78H310.37z"/>
		<path class="st1" d="M319.23,324.28c0-10.63-7.65-14.57-7.65-14.57v1.17c0,0,6.49,3.68,6.49,12.39h-6.03
			c0-9.96,7.18-13.02,7.18-13.02v-1.17c0,0-6.98,2.43-7.65,11.84c-0.67-9.42-7.65-11.84-7.65-11.84v1.17c0,0,7.19,3.06,7.19,13.02
			h-5.99c0-8.71,6.45-12.39,6.45-12.39v-1.17c0,0-7.65,3.93-7.65,14.57H319.23z"/>
	</g>
	<g>
		<path class="st0" d="M328.09,323.28c0,0,0.37-4.77,2.12-6.78c1.76,2.01,2.12,6.78,2.12,6.78H328.09z"/>
		<path class="st0" d="M325.66,323.28c0,0-0.37-4.77-2.12-6.78c-1.76,2.01-2.12,6.78-2.12,6.78H325.66z"/>
		<path class="st1" d="M334.52,324.28c0-10.63-7.64-14.57-7.64-14.57v1.17c0,0,6.49,3.68,6.49,12.39h-6.03
			c0-9.96,7.18-13.02,7.18-13.02v-1.17c0,0-6.97,2.43-7.64,11.84c-0.67-9.42-7.65-11.84-7.65-11.84v1.17c0,0,7.19,3.06,7.19,13.02
			h-5.99c0-8.71,6.45-12.39,6.45-12.39v-1.17c0,0-7.65,3.93-7.65,14.57H334.52z"/>
	</g>
	<g>
		<path class="st0" d="M343.38,323.28c0,0,0.37-4.77,2.12-6.78c1.76,2.01,2.12,6.78,2.12,6.78H343.38z"/>
		<path class="st0" d="M340.95,323.28c0,0-0.37-4.77-2.12-6.78c-1.76,2.01-2.12,6.78-2.12,6.78H340.95z"/>
		<path class="st1" d="M349.81,324.28c0-10.63-7.64-14.57-7.64-14.57v1.17c0,0,6.49,3.68,6.49,12.39h-6.03
			c0-9.96,7.18-13.02,7.18-13.02v-1.17c0,0-6.98,2.43-7.64,11.84c-0.67-9.42-7.65-11.84-7.65-11.84v1.17c0,0,7.18,3.06,7.18,13.02
			h-5.98c0-8.71,6.45-12.39,6.45-12.39v-1.17c0,0-7.65,3.93-7.65,14.57H349.81z"/>
	</g>
	<g>
		<path class="st0" d="M358.67,323.28c0,0,0.37-4.77,2.12-6.78c1.76,2.01,2.12,6.78,2.12,6.78H358.67z"/>
		<path class="st0" d="M356.25,323.28c0,0-0.37-4.77-2.12-6.78c-1.76,2.01-2.12,6.78-2.12,6.78H356.25z"/>
		<path class="st1" d="M365.11,324.28c0-10.63-7.64-14.57-7.64-14.57v1.17c0,0,6.49,3.68,6.49,12.39h-6.03
			c0-9.96,7.18-13.02,7.18-13.02v-1.17c0,0-6.98,2.43-7.64,11.84c-0.67-9.42-7.65-11.84-7.65-11.84v1.17c0,0,7.18,3.06,7.18,13.02
			h-5.99c0-8.71,6.45-12.39,6.45-12.39v-1.17c0,0-7.65,3.93-7.65,14.57H365.11z"/>
	</g>
	<g>
		<path class="st0" d="M373.97,323.28c0,0,0.37-4.77,2.12-6.78c1.76,2.01,2.12,6.78,2.12,6.78H373.97z"/>
		<path class="st0" d="M371.54,323.28c0,0-0.37-4.77-2.12-6.78c-1.76,2.01-2.12,6.78-2.12,6.78H371.54z"/>
		<path class="st1" d="M380.4,324.28c0-10.63-7.65-14.57-7.65-14.57v1.17c0,0,6.49,3.68,6.49,12.39h-6.03
			c0-9.96,7.18-13.02,7.18-13.02v-1.17c0,0-6.98,2.43-7.65,11.84c-0.67-9.42-7.65-11.84-7.65-11.84v1.17c0,0,7.19,3.06,7.19,13.02
			h-5.99c0-8.71,6.45-12.39,6.45-12.39v-1.17c0,0-7.65,3.93-7.65,14.57H380.4z"/>
	</g>
	<g>
		<path class="st0" d="M119,331.09c0,0-4.77-0.37-6.78-2.12c2.01-1.76,6.78-2.12,6.78-2.12V331.09z"/>
		<path class="st0" d="M119,333.52c0,0-4.77,0.37-6.78,2.12c2.01,1.76,6.78,2.12,6.78,2.12V333.52z"/>
		<path class="st1" d="M120,324.66c-10.63,0-14.57,7.64-14.57,7.64h1.17c0,0,3.68-6.49,12.39-6.49v6.03
			c-9.96,0-13.02-7.18-13.02-7.18h-1.17c0,0,2.43,6.98,11.84,7.64c-9.42,0.67-11.84,7.65-11.84,7.65h1.17c0,0,3.06-7.18,13.02-7.18
			v5.98c-8.71,0-12.39-6.45-12.39-6.45h-1.17c0,0,3.93,7.65,14.57,7.65V324.66z"/>
	</g>
	<g>
		<path class="st2" d="M120.04,324.67c-10.63,0-14.57-7.64-14.57-7.64s0.7-3.11,4.21-3.11l0.19,0.89c-2.87,0-3.24,2.22-3.24,2.22
			s3.77,6.35,12.47,6.35c0-8.71-6.36-12.49-6.36-12.49s-2.22,0.36-2.22,3.24l-0.89-0.2c0-3.51,3.11-4.21,3.11-4.21
			s7.65,3.93,7.65,14.57v0.38H120.04z"/>
		<path class="st3" d="M119.41,323.66c-9.49-1.92-10.07-10.07-10.07-10.07S117.48,314.18,119.41,323.66z"/>
		<path class="st1" d="M113.94,318.17c-5.92,1.83-7.91,6.5-7.91,6.5h-1.17c0,0,1.83-5.29,8.48-7.11c1.83-6.61,7.07-8.47,7.07-8.47
			v1.17C120.4,310.26,115.77,312.28,113.94,318.17z"/>
	</g>
	<g>
		<path class="st0" d="M381.83,331.09c0,0,4.77-0.37,6.78-2.12c-2.01-1.76-6.78-2.12-6.78-2.12V331.09z"/>
		<path class="st0" d="M381.83,333.52c0,0,4.77,0.37,6.78,2.12c-2.01,1.76-6.78,2.12-6.78,2.12V333.52z"/>
		<path class="st1" d="M380.82,324.66c10.63,0,14.56,7.64,14.56,7.64h-1.17c0,0-3.68-6.49-12.39-6.49v6.03
			c9.96,0,13.02-7.18,13.02-7.18h1.17c0,0-2.43,6.98-11.84,7.64c9.42,0.67,11.84,7.65,11.84,7.65h-1.17c0,0-3.06-7.18-13.02-7.18
			v5.98c8.71,0,12.39-6.45,12.39-6.45h1.17c0,0-3.93,7.65-14.56,7.65V324.66z"/>
	</g>
	<g>
		<path class="st0" d="M119,346.38c0,0-4.77-0.37-6.78-2.12c2.01-1.76,6.78-2.12,6.78-2.12V346.38z"/>
		<path class="st0" d="M119,348.81c0,0-4.77,0.37-6.78,2.12c2.01,1.76,6.78,2.12,6.78,2.12V348.81z"/>
		<path class="st1" d="M120,339.95c-10.63,0-14.57,7.65-14.57,7.65h1.17c0,0,3.68-6.49,12.39-6.49v6.03
			c-9.96,0-13.02-7.19-13.02-7.19h-1.17c0,0,2.43,6.98,11.84,7.65c-9.42,0.67-11.84,7.65-11.84,7.65h1.17c0,0,3.06-7.18,13.02-7.18
			v5.98c-8.71,0-12.39-6.45-12.39-6.45h-1.17c0,0,3.93,7.65,14.57,7.65V339.95z"/>
	</g>
	<g>
		<path class="st0" d="M381.83,346.38c0,0,4.77-0.37,6.78-2.12c-2.01-1.76-6.78-2.12-6.78-2.12V346.38z"/>
		<path class="st0" d="M381.83,348.81c0,0,4.77,0.37,6.78,2.12c-2.01,1.76-6.78,2.12-6.78,2.12V348.81z"/>
		<path class="st1" d="M380.82,339.95c10.63,0,14.56,7.65,14.56,7.65h-1.17c0,0-3.68-6.49-12.39-6.49v6.03
			c9.96,0,13.02-7.19,13.02-7.19h1.17c0,0-2.43,6.98-11.84,7.65c9.42,0.67,11.84,7.65,11.84,7.65h-1.17c0,0-3.06-7.18-13.02-7.18
			v5.98c8.71,0,12.39-6.45,12.39-6.45h1.17c0,0-3.93,7.65-14.56,7.65V339.95z"/>
	</g>
	<g>
		<path class="st0" d="M119,361.68c0,0-4.77-0.37-6.78-2.12c2.01-1.76,6.78-2.12,6.78-2.12V361.68z"/>
		<path class="st0" d="M119,364.11c0,0-4.77,0.37-6.78,2.12c2.01,1.76,6.78,2.12,6.78,2.12V364.11z"/>
		<path class="st1" d="M120,355.25c-10.63,0-14.57,7.65-14.57,7.65h1.17c0,0,3.68-6.49,12.39-6.49v6.03
			c-9.96,0-13.02-7.18-13.02-7.18h-1.17c0,0,2.43,6.98,11.84,7.65c-9.42,0.67-11.84,7.65-11.84,7.65h1.17c0,0,3.06-7.19,13.02-7.19
			v5.99c-8.71,0-12.39-6.45-12.39-6.45h-1.17c0,0,3.93,7.65,14.57,7.65V355.25z"/>
	</g>
	<g>
		<path class="st0" d="M381.83,361.68c0,0,4.77-0.37,6.78-2.12c-2.01-1.76-6.78-2.12-6.78-2.12V361.68z"/>
		<path class="st0" d="M381.83,364.11c0,0,4.77,0.37,6.78,2.12c-2.01,1.76-6.78,2.12-6.78,2.12V364.11z"/>
		<path class="st1" d="M380.82,355.25c10.63,0,14.56,7.65,14.56,7.65h-1.17c0,0-3.68-6.49-12.39-6.49v6.03
			c9.96,0,13.02-7.18,13.02-7.18h1.17c0,0-2.43,6.98-11.84,7.65c9.42,0.67,11.84,7.65,11.84,7.65h-1.17c0,0-3.06-7.19-13.02-7.19
			v5.99c8.71,0,12.39-6.45,12.39-6.45h1.17c0,0-3.93,7.65-14.56,7.65V355.25z"/>
	</g>
	<g>
		<path class="st0" d="M119,376.97c0,0-4.77-0.37-6.78-2.12c2.01-1.76,6.78-2.12,6.78-2.12V376.97z"/>
		<path class="st0" d="M119,379.4c0,0-4.77,0.37-6.78,2.12c2.01,1.76,6.78,2.12,6.78,2.12V379.4z"/>
		<path class="st1" d="M120,370.54c-10.63,0-14.57,7.65-14.57,7.65h1.17c0,0,3.68-6.49,12.39-6.49v6.03
			c-9.96,0-13.02-7.18-13.02-7.18h-1.17c0,0,2.43,6.98,11.84,7.65c-9.42,0.67-11.84,7.64-11.84,7.64h1.17c0,0,3.06-7.18,13.02-7.18
			v5.99c-8.71,0-12.39-6.45-12.39-6.45h-1.17c0,0,3.93,7.64,14.57,7.64V370.54z"/>
	</g>
	<g>
		<path class="st0" d="M381.83,376.97c0,0,4.77-0.37,6.78-2.12c-2.01-1.76-6.78-2.12-6.78-2.12V376.97z"/>
		<path class="st0" d="M381.83,379.4c0,0,4.77,0.37,6.78,2.12c-2.01,1.76-6.78,2.12-6.78,2.12V379.4z"/>
		<path class="st1" d="M380.82,370.54c10.63,0,14.56,7.65,14.56,7.65h-1.17c0,0-3.68-6.49-12.39-6.49v6.03
			c9.96,0,13.02-7.18,13.02-7.18h1.17c0,0-2.43,6.98-11.84,7.65c9.42,0.67,11.84,7.64,11.84,7.64h-1.17c0,0-3.06-7.18-13.02-7.18
			v5.99c8.71,0,12.39-6.45,12.39-6.45h1.17c0,0-3.93,7.64-14.56,7.64V370.54z"/>
	</g>
	<g>
		<path class="st0" d="M119,392.26c0,0-4.77-0.37-6.78-2.13c2.01-1.76,6.78-2.12,6.78-2.12V392.26z"/>
		<path class="st0" d="M119,394.69c0,0-4.77,0.37-6.78,2.12c2.01,1.76,6.78,2.12,6.78,2.12V394.69z"/>
		<path class="st1" d="M120,385.83c-10.63,0-14.57,7.64-14.57,7.64h1.17c0,0,3.68-6.49,12.39-6.49v6.03
			c-9.96,0-13.02-7.18-13.02-7.18h-1.17c0,0,2.43,6.98,11.84,7.64c-9.42,0.67-11.84,7.65-11.84,7.65h1.17c0,0,3.06-7.18,13.02-7.18
			v5.99c-8.71,0-12.39-6.45-12.39-6.45h-1.17c0,0,3.93,7.65,14.57,7.65V385.83z"/>
	</g>
	<g>
		<path class="st0" d="M381.83,392.26c0,0,4.77-0.37,6.78-2.13c-2.01-1.76-6.78-2.12-6.78-2.12V392.26z"/>
		<path class="st0" d="M381.83,394.69c0,0,4.77,0.37,6.78,2.12c-2.01,1.76-6.78,2.12-6.78,2.12V394.69z"/>
		<path class="st1" d="M380.82,385.83c10.63,0,14.56,7.64,14.56,7.64h-1.17c0,0-3.68-6.49-12.39-6.49v6.03
			c9.96,0,13.02-7.18,13.02-7.18h1.17c0,0-2.43,6.98-11.84,7.64c9.42,0.67,11.84,7.65,11.84,7.65h-1.17c0,0-3.06-7.18-13.02-7.18
			v5.99c8.71,0,12.39-6.45,12.39-6.45h1.17c0,0-3.93,7.65-14.56,7.65V385.83z"/>
	</g>
	<g>
		<path class="st0" d="M119,407.56c0,0-4.77-0.37-6.78-2.12c2.01-1.76,6.78-2.12,6.78-2.12V407.56z"/>
		<path class="st0" d="M119,409.98c0,0-4.77,0.37-6.78,2.12c2.01,1.76,6.78,2.12,6.78,2.12V409.98z"/>
		<path class="st1" d="M120,401.13c-10.63,0-14.57,7.64-14.57,7.64h1.17c0,0,3.68-6.49,12.39-6.49v6.03
			c-9.96,0-13.02-7.18-13.02-7.18h-1.17c0,0,2.43,6.98,11.84,7.64c-9.42,0.67-11.84,7.65-11.84,7.65h1.17c0,0,3.06-7.18,13.02-7.18
			v5.98c-8.71,0-12.39-6.45-12.39-6.45h-1.17c0,0,3.93,7.65,14.57,7.65V401.13z"/>
	</g>
	<g>
		<path class="st0" d="M381.83,407.56c0,0,4.77-0.37,6.78-2.12c-2.01-1.76-6.78-2.12-6.78-2.12V407.56z"/>
		<path class="st0" d="M381.83,409.98c0,0,4.77,0.37,6.78,2.12c-2.01,1.76-6.78,2.12-6.78,2.12V409.98z"/>
		<path class="st1" d="M380.82,401.13c10.63,0,14.56,7.64,14.56,7.64h-1.17c0,0-3.68-6.49-12.39-6.49v6.03
			c9.96,0,13.02-7.18,13.02-7.18h1.17c0,0-2.43,6.98-11.84,7.64c9.42,0.67,11.84,7.65,11.84,7.65h-1.17c0,0-3.06-7.18-13.02-7.18
			v5.98c8.71,0,12.39-6.45,12.39-6.45h1.17c0,0-3.93,7.65-14.56,7.65V401.13z"/>
	</g>
	<g>
		<path class="st0" d="M119,422.85c0,0-4.77-0.37-6.78-2.12c2.01-1.76,6.78-2.12,6.78-2.12V422.85z"/>
		<path class="st0" d="M119,425.28c0,0-4.77,0.37-6.78,2.12c2.01,1.76,6.78,2.12,6.78,2.12V425.28z"/>
		<path class="st1" d="M120,416.42c-10.63,0-14.57,7.65-14.57,7.65h1.17c0,0,3.68-6.49,12.39-6.49v6.03
			c-9.96,0-13.02-7.19-13.02-7.19h-1.17c0,0,2.43,6.98,11.84,7.65c-9.42,0.67-11.84,7.65-11.84,7.65h1.17c0,0,3.06-7.18,13.02-7.18
			v5.98c-8.71,0-12.39-6.45-12.39-6.45h-1.17c0,0,3.93,7.65,14.57,7.65V416.42z"/>
	</g>
	<g>
		<path class="st0" d="M381.83,422.85c0,0,4.77-0.37,6.78-2.12c-2.01-1.76-6.78-2.12-6.78-2.12V422.85z"/>
		<path class="st0" d="M381.83,425.28c0,0,4.77,0.37,6.78,2.12c-2.01,1.76-6.78,2.12-6.78,2.12V425.28z"/>
		<path class="st1" d="M380.82,416.42c10.63,0,14.56,7.65,14.56,7.65h-1.17c0,0-3.68-6.49-12.39-6.49v6.03
			c9.96,0,13.02-7.19,13.02-7.19h1.17c0,0-2.43,6.98-11.84,7.65c9.42,0.67,11.84,7.65,11.84,7.65h-1.17c0,0-3.06-7.18-13.02-7.18
			v5.98c8.71,0,12.39-6.45,12.39-6.45h1.17c0,0-3.93,7.65-14.56,7.65V416.42z"/>
	</g>
	<g>
		<path class="st0" d="M119,438.14c0,0-4.77-0.37-6.78-2.12c2.01-1.76,6.78-2.12,6.78-2.12V438.14z"/>
		<path class="st0" d="M119,440.57c0,0-4.77,0.37-6.78,2.12c2.01,1.76,6.78,2.12,6.78,2.12V440.57z"/>
		<path class="st1" d="M120,431.71c-10.63,0-14.57,7.65-14.57,7.65h1.17c0,0,3.68-6.49,12.39-6.49v6.03
			c-9.96,0-13.02-7.18-13.02-7.18h-1.17c0,0,2.43,6.98,11.84,7.65c-9.42,0.67-11.84,7.65-11.84,7.65h1.17c0,0,3.06-7.19,13.02-7.19
			v5.99c-8.71,0-12.39-6.45-12.39-6.45h-1.17c0,0,3.93,7.65,14.57,7.65V431.71z"/>
	</g>
	<g>
		<path class="st0" d="M381.83,438.14c0,0,4.77-0.37,6.78-2.12c-2.01-1.76-6.78-2.12-6.78-2.12V438.14z"/>
		<path class="st0" d="M381.83,440.57c0,0,4.77,0.37,6.78,2.12c-2.01,1.76-6.78,2.12-6.78,2.12V440.57z"/>
		<path class="st1" d="M380.82,431.71c10.63,0,14.56,7.65,14.56,7.65h-1.17c0,0-3.68-6.49-12.39-6.49v6.03
			c9.96,0,13.02-7.18,13.02-7.18h1.17c0,0-2.43,6.98-11.84,7.65c9.42,0.67,11.84,7.65,11.84,7.65h-1.17c0,0-3.06-7.19-13.02-7.19
			v5.99c8.71,0,12.39-6.45,12.39-6.45h1.17c0,0-3.93,7.65-14.56,7.65V431.71z"/>
	</g>
	<g>
		<path class="st0" d="M119,453.43c0,0-4.77-0.37-6.78-2.12c2.01-1.76,6.78-2.12,6.78-2.12V453.43z"/>
		<path class="st0" d="M119,455.86c0,0-4.77,0.37-6.78,2.12c2.01,1.76,6.78,2.12,6.78,2.12V455.86z"/>
		<path class="st1" d="M120,447c-10.63,0-14.57,7.65-14.57,7.65h1.17c0,0,3.68-6.49,12.39-6.49v6.03c-9.96,0-13.02-7.18-13.02-7.18
			h-1.17c0,0,2.43,6.98,11.84,7.65c-9.42,0.67-11.84,7.64-11.84,7.64h1.17c0,0,3.06-7.18,13.02-7.18v5.99
			c-8.71,0-12.39-6.45-12.39-6.45h-1.17c0,0,3.93,7.64,14.57,7.64V447z"/>
	</g>
	<g>
		<path class="st0" d="M381.83,453.43c0,0,4.77-0.37,6.78-2.12c-2.01-1.76-6.78-2.12-6.78-2.12V453.43z"/>
		<path class="st0" d="M381.83,455.86c0,0,4.77,0.37,6.78,2.12c-2.01,1.76-6.78,2.12-6.78,2.12V455.86z"/>
		<path class="st1" d="M380.82,447c10.63,0,14.56,7.65,14.56,7.65h-1.17c0,0-3.68-6.49-12.39-6.49v6.03
			c9.96,0,13.02-7.18,13.02-7.18h1.17c0,0-2.43,6.98-11.84,7.65c9.42,0.67,11.84,7.64,11.84,7.64h-1.17c0,0-3.06-7.18-13.02-7.18
			v5.99c8.71,0,12.39-6.45,12.39-6.45h1.17c0,0-3.93,7.64-14.56,7.64V447z"/>
	</g>
	<g>
		<path class="st0" d="M119,468.73c0,0-4.77-0.37-6.78-2.13c2.01-1.76,6.78-2.12,6.78-2.12V468.73z"/>
		<path class="st0" d="M119,471.15c0,0-4.77,0.37-6.78,2.12c2.01,1.76,6.78,2.12,6.78,2.12V471.15z"/>
		<path class="st1" d="M120,462.3c-10.63,0-14.57,7.64-14.57,7.64h1.17c0,0,3.68-6.49,12.39-6.49v6.03
			c-9.96,0-13.02-7.18-13.02-7.18h-1.17c0,0,2.43,6.98,11.84,7.64c-9.42,0.67-11.84,7.65-11.84,7.65h1.17c0,0,3.06-7.18,13.02-7.18
			v5.99c-8.71,0-12.39-6.45-12.39-6.45h-1.17c0,0,3.93,7.65,14.57,7.65V462.3z"/>
	</g>
	<g>
		<path class="st0" d="M381.83,468.73c0,0,4.77-0.37,6.78-2.13c-2.01-1.76-6.78-2.12-6.78-2.12V468.73z"/>
		<path class="st0" d="M381.83,471.15c0,0,4.77,0.37,6.78,2.12c-2.01,1.76-6.78,2.12-6.78,2.12V471.15z"/>
		<path class="st1" d="M380.82,462.3c10.63,0,14.56,7.64,14.56,7.64h-1.17c0,0-3.68-6.49-12.39-6.49v6.03
			c9.96,0,13.02-7.18,13.02-7.18h1.17c0,0-2.43,6.98-11.84,7.64c9.42,0.67,11.84,7.65,11.84,7.65h-1.17c0,0-3.06-7.18-13.02-7.18
			v5.99c8.71,0,12.39-6.45,12.39-6.45h1.17c0,0-3.93,7.65-14.56,7.65V462.3z"/>
	</g>
	<g>
		<path class="st0" d="M119,484.02c0,0-4.77-0.37-6.78-2.12c2.01-1.76,6.78-2.12,6.78-2.12V484.02z"/>
		<path class="st0" d="M119,486.45c0,0-4.77,0.37-6.78,2.12c2.01,1.76,6.78,2.12,6.78,2.12V486.45z"/>
		<path class="st1" d="M120,477.59c-10.63,0-14.57,7.64-14.57,7.64h1.17c0,0,3.68-6.49,12.39-6.49v6.03
			c-9.96,0-13.02-7.18-13.02-7.18h-1.17c0,0,2.43,6.98,11.84,7.64c-9.42,0.67-11.84,7.65-11.84,7.65h1.17c0,0,3.06-7.18,13.02-7.18
			v5.98c-8.71,0-12.39-6.45-12.39-6.45h-1.17c0,0,3.93,7.65,14.57,7.65V477.59z"/>
	</g>
	<g>
		<path class="st0" d="M381.83,484.02c0,0,4.77-0.37,6.78-2.12c-2.01-1.76-6.78-2.12-6.78-2.12V484.02z"/>
		<path class="st0" d="M381.83,486.45c0,0,4.77,0.37,6.78,2.12c-2.01,1.76-6.78,2.12-6.78,2.12V486.45z"/>
		<path class="st1" d="M380.82,477.59c10.63,0,14.56,7.64,14.56,7.64h-1.17c0,0-3.68-6.49-12.39-6.49v6.03
			c9.96,0,13.02-7.18,13.02-7.18h1.17c0,0-2.43,6.98-11.84,7.64c9.42,0.67,11.84,7.65,11.84,7.65h-1.17c0,0-3.06-7.18-13.02-7.18
			v5.98c8.71,0,12.39-6.45,12.39-6.45h1.17c0,0-3.93,7.65-14.56,7.65V477.59z"/>
	</g>
	<g>
		<path class="st0" d="M119,499.31c0,0-4.77-0.37-6.78-2.12c2.01-1.76,6.78-2.12,6.78-2.12V499.31z"/>
		<path class="st0" d="M119,501.74c0,0-4.77,0.37-6.78,2.12c2.01,1.76,6.78,2.12,6.78,2.12V501.74z"/>
		<path class="st1" d="M120,492.88c-10.63,0-14.57,7.65-14.57,7.65h1.17c0,0,3.68-6.49,12.39-6.49v6.03
			c-9.96,0-13.02-7.19-13.02-7.19h-1.17c0,0,2.43,6.98,11.84,7.65c-9.42,0.67-11.84,7.65-11.84,7.65h1.17c0,0,3.06-7.18,13.02-7.18
			v5.99c-8.71,0-12.39-6.45-12.39-6.45h-1.17c0,0,3.93,7.65,14.57,7.65V492.88z"/>
	</g>
	<g>
		<path class="st0" d="M381.83,499.31c0,0,4.77-0.37,6.78-2.12c-2.01-1.76-6.78-2.12-6.78-2.12V499.31z"/>
		<path class="st0" d="M381.83,501.74c0,0,4.77,0.37,6.78,2.12c-2.01,1.76-6.78,2.12-6.78,2.12V501.74z"/>
		<path class="st1" d="M380.82,492.88c10.63,0,14.56,7.65,14.56,7.65h-1.17c0,0-3.68-6.49-12.39-6.49v6.03
			c9.96,0,13.02-7.19,13.02-7.19h1.17c0,0-2.43,6.98-11.84,7.65c9.42,0.67,11.84,7.65,11.84,7.65h-1.17c0,0-3.06-7.18-13.02-7.18
			v5.99c8.71,0,12.39-6.45,12.39-6.45h1.17c0,0-3.93,7.65-14.56,7.65V492.88z"/>
	</g>
	<g>
		<path class="st0" d="M119,514.61c0,0-4.77-0.37-6.78-2.12c2.01-1.76,6.78-2.12,6.78-2.12V514.61z"/>
		<path class="st0" d="M119,517.03c0,0-4.77,0.37-6.78,2.12c2.01,1.76,6.78,2.12,6.78,2.12V517.03z"/>
		<path class="st1" d="M120,508.17c-10.63,0-14.57,7.64-14.57,7.64h1.17c0,0,3.68-6.49,12.39-6.49v6.03
			c-9.96,0-13.02-7.19-13.02-7.19h-1.17c0,0,2.43,6.98,11.84,7.64c-9.42,0.67-11.84,7.65-11.84,7.65h1.17c0,0,3.06-7.18,13.02-7.18
			v5.99c-8.71,0-12.39-6.45-12.39-6.45h-1.17c0,0,3.93,7.65,14.57,7.65V508.17z"/>
	</g>
	<g>
		<path class="st0" d="M381.83,514.61c0,0,4.77-0.37,6.78-2.12c-2.01-1.76-6.78-2.12-6.78-2.12V514.61z"/>
		<path class="st0" d="M381.83,517.03c0,0,4.77,0.37,6.78,2.12c-2.01,1.76-6.78,2.12-6.78,2.12V517.03z"/>
		<path class="st1" d="M380.82,508.17c10.63,0,14.56,7.64,14.56,7.64h-1.17c0,0-3.68-6.49-12.39-6.49v6.03
			c9.96,0,13.02-7.19,13.02-7.19h1.17c0,0-2.43,6.98-11.84,7.64c9.42,0.67,11.84,7.65,11.84,7.65h-1.17c0,0-3.06-7.18-13.02-7.18
			v5.99c8.71,0,12.39-6.45,12.39-6.45h1.17c0,0-3.93,7.65-14.56,7.65V508.17z"/>
	</g>
	<g>
		<path class="st0" d="M119,529.9c0,0-4.77-0.37-6.78-2.12c2.01-1.76,6.78-2.12,6.78-2.12V529.9z"/>
		<path class="st0" d="M119,532.33c0,0-4.77,0.37-6.78,2.12c2.01,1.76,6.78,2.12,6.78,2.12V532.33z"/>
		<path class="st1" d="M120,523.47c-10.63,0-14.57,7.64-14.57,7.64h1.17c0,0,3.68-6.49,12.39-6.49v6.03
			c-9.96,0-13.02-7.18-13.02-7.18h-1.17c0,0,2.43,6.98,11.84,7.64c-9.42,0.67-11.84,7.65-11.84,7.65h1.17c0,0,3.06-7.18,13.02-7.18
			v5.99c-8.71,0-12.39-6.45-12.39-6.45h-1.17c0,0,3.93,7.65,14.57,7.65V523.47z"/>
	</g>
	<g>
		<path class="st0" d="M381.83,529.9c0,0,4.77-0.37,6.78-2.12c-2.01-1.76-6.78-2.12-6.78-2.12V529.9z"/>
		<path class="st0" d="M381.83,532.33c0,0,4.77,0.37,6.78,2.12c-2.01,1.76-6.78,2.12-6.78,2.12V532.33z"/>
		<path class="st1" d="M380.82,523.47c10.63,0,14.56,7.64,14.56,7.64h-1.17c0,0-3.68-6.49-12.39-6.49v6.03
			c9.96,0,13.02-7.18,13.02-7.18h1.17c0,0-2.43,6.98-11.84,7.64c9.42,0.67,11.84,7.65,11.84,7.65h-1.17c0,0-3.06-7.18-13.02-7.18
			v5.99c8.71,0,12.39-6.45,12.39-6.45h1.17c0,0-3.93,7.65-14.56,7.65V523.47z"/>
	</g>
	<g>
		<path class="st0" d="M119,545.19c0,0-4.77-0.37-6.78-2.12c2.01-1.76,6.78-2.13,6.78-2.13V545.19z"/>
		<path class="st0" d="M119,547.62c0,0-4.77,0.37-6.78,2.12c2.01,1.76,6.78,2.12,6.78,2.12V547.62z"/>
		<path class="st1" d="M120,538.76c-10.63,0-14.57,7.64-14.57,7.64h1.17c0,0,3.68-6.49,12.39-6.49v6.03
			c-9.96,0-13.02-7.18-13.02-7.18h-1.17c0,0,2.43,6.98,11.84,7.64c-9.42,0.67-11.84,7.65-11.84,7.65h1.17c0,0,3.06-7.18,13.02-7.18
			v5.99c-8.71,0-12.39-6.45-12.39-6.45h-1.17c0,0,3.93,7.65,14.57,7.65V538.76z"/>
	</g>
	<g>
		<path class="st0" d="M381.83,545.19c0,0,4.77-0.37,6.78-2.12c-2.01-1.76-6.78-2.13-6.78-2.13V545.19z"/>
		<path class="st0" d="M381.83,547.62c0,0,4.77,0.37,6.78,2.12c-2.01,1.76-6.78,2.12-6.78,2.12V547.62z"/>
		<path class="st1" d="M380.82,538.76c10.63,0,14.56,7.64,14.56,7.64h-1.17c0,0-3.68-6.49-12.39-6.49v6.03
			c9.96,0,13.02-7.18,13.02-7.18h1.17c0,0-2.43,6.98-11.84,7.64c9.42,0.67,11.84,7.65,11.84,7.65h-1.17c0,0-3.06-7.18-13.02-7.18
			v5.99c8.71,0,12.39-6.45,12.39-6.45h1.17c0,0-3.93,7.65-14.56,7.65V538.76z"/>
	</g>
	<g>
		<path class="st0" d="M119,560.48c0,0-4.77-0.37-6.78-2.12c2.01-1.76,6.78-2.13,6.78-2.13V560.48z"/>
		<path class="st0" d="M119,562.91c0,0-4.77,0.37-6.78,2.12c2.01,1.76,6.78,2.12,6.78,2.12V562.91z"/>
		<path class="st1" d="M120,554.05c-10.63,0-14.57,7.64-14.57,7.64h1.17c0,0,3.68-6.49,12.39-6.49v6.03
			c-9.96,0-13.02-7.18-13.02-7.18h-1.17c0,0,2.43,6.98,11.84,7.64c-9.42,0.67-11.84,7.65-11.84,7.65h1.17c0,0,3.06-7.18,13.02-7.18
			v5.99c-8.71,0-12.39-6.45-12.39-6.45h-1.17c0,0,3.93,7.65,14.57,7.65V554.05z"/>
	</g>
	<g>
		<path class="st0" d="M381.83,560.48c0,0,4.77-0.37,6.78-2.12c-2.01-1.76-6.78-2.13-6.78-2.13V560.48z"/>
		<path class="st0" d="M381.83,562.91c0,0,4.77,0.37,6.78,2.12c-2.01,1.76-6.78,2.12-6.78,2.12V562.91z"/>
		<path class="st1" d="M380.82,554.05c10.63,0,14.56,7.64,14.56,7.64h-1.17c0,0-3.68-6.49-12.39-6.49v6.03
			c9.96,0,13.02-7.18,13.02-7.18h1.17c0,0-2.43,6.98-11.84,7.64c9.42,0.67,11.84,7.65,11.84,7.65h-1.17c0,0-3.06-7.18-13.02-7.18
			v5.99c8.71,0,12.39-6.45,12.39-6.45h1.17c0,0-3.93,7.65-14.56,7.65V554.05z"/>
	</g>
	<g>
		<path class="st0" d="M119,575.78c0,0-4.77-0.37-6.78-2.12c2.01-1.76,6.78-2.12,6.78-2.12V575.78z"/>
		<path class="st0" d="M119,578.2c0,0-4.77,0.37-6.78,2.12c2.01,1.76,6.78,2.12,6.78,2.12V578.2z"/>
		<path class="st1" d="M120,569.34c-10.63,0-14.57,7.65-14.57,7.65h1.17c0,0,3.68-6.49,12.39-6.49v6.03
			c-9.96,0-13.02-7.19-13.02-7.19h-1.17c0,0,2.43,6.98,11.84,7.65c-9.42,0.67-11.84,7.65-11.84,7.65h1.17c0,0,3.06-7.18,13.02-7.18
			v5.99c-8.71,0-12.39-6.45-12.39-6.45h-1.17c0,0,3.93,7.65,14.57,7.65V569.34z"/>
	</g>
	<g>
		<path class="st0" d="M381.83,575.78c0,0,4.77-0.37,6.78-2.12c-2.01-1.76-6.78-2.12-6.78-2.12V575.78z"/>
		<path class="st0" d="M381.83,578.2c0,0,4.77,0.37,6.78,2.12c-2.01,1.76-6.78,2.12-6.78,2.12V578.2z"/>
		<path class="st1" d="M380.82,569.34c10.63,0,14.56,7.65,14.56,7.65h-1.17c0,0-3.68-6.49-12.39-6.49v6.03
			c9.96,0,13.02-7.19,13.02-7.19h1.17c0,0-2.43,6.98-11.84,7.65c9.42,0.67,11.84,7.65,11.84,7.65h-1.17c0,0-3.06-7.18-13.02-7.18
			v5.99c8.71,0,12.39-6.45,12.39-6.45h1.17c0,0-3.93,7.65-14.56,7.65V569.34z"/>
	</g>
	<g>
		<path class="st0" d="M119,591.07c0,0-4.77-0.37-6.78-2.12c2.01-1.76,6.78-2.12,6.78-2.12V591.07z"/>
		<path class="st0" d="M119,593.5c0,0-4.77,0.37-6.78,2.12c2.01,1.76,6.78,2.12,6.78,2.12V593.5z"/>
		<path class="st1" d="M120,584.64c-10.63,0-14.57,7.64-14.57,7.64h1.17c0,0,3.68-6.49,12.39-6.49v6.03
			c-9.96,0-13.02-7.19-13.02-7.19h-1.17c0,0,2.43,6.98,11.84,7.64c-9.42,0.67-11.84,7.65-11.84,7.65h1.17c0,0,3.06-7.18,13.02-7.18
			v5.99c-8.71,0-12.39-6.45-12.39-6.45h-1.17c0,0,3.93,7.65,14.57,7.65V584.64z"/>
	</g>
	<g>
		<path class="st0" d="M381.83,591.07c0,0,4.77-0.37,6.78-2.12c-2.01-1.76-6.78-2.12-6.78-2.12V591.07z"/>
		<path class="st0" d="M381.83,593.5c0,0,4.77,0.37,6.78,2.12c-2.01,1.76-6.78,2.12-6.78,2.12V593.5z"/>
		<path class="st1" d="M380.82,584.64c10.63,0,14.56,7.64,14.56,7.64h-1.17c0,0-3.68-6.49-12.39-6.49v6.03
			c9.96,0,13.02-7.19,13.02-7.19h1.17c0,0-2.43,6.98-11.84,7.64c9.42,0.67,11.84,7.65,11.84,7.65h-1.17c0,0-3.06-7.18-13.02-7.18
			v5.99c8.71,0,12.39-6.45,12.39-6.45h1.17c0,0-3.93,7.65-14.56,7.65V584.64z"/>
	</g>
	<g>
		<path class="st0" d="M119,606.36c0,0-4.77-0.37-6.78-2.12c2.01-1.76,6.78-2.12,6.78-2.12V606.36z"/>
		<path class="st0" d="M119,608.79c0,0-4.77,0.37-6.78,2.12c2.01,1.76,6.78,2.12,6.78,2.12V608.79z"/>
		<path class="st1" d="M120,599.93c-10.63,0-14.57,7.64-14.57,7.64h1.17c0,0,3.68-6.49,12.39-6.49v6.03
			c-9.96,0-13.02-7.18-13.02-7.18h-1.17c0,0,2.43,6.98,11.84,7.64c-9.42,0.67-11.84,7.65-11.84,7.65h1.17c0,0,3.06-7.18,13.02-7.18
			v5.99c-8.71,0-12.39-6.45-12.39-6.45h-1.17c0,0,3.93,7.65,14.57,7.65V599.93z"/>
	</g>
	<g>
		<path class="st0" d="M381.83,606.36c0,0,4.77-0.37,6.78-2.12c-2.01-1.76-6.78-2.12-6.78-2.12V606.36z"/>
		<path class="st0" d="M381.83,608.79c0,0,4.77,0.37,6.78,2.12c-2.01,1.76-6.78,2.12-6.78,2.12V608.79z"/>
		<path class="st1" d="M380.82,599.93c10.63,0,14.56,7.64,14.56,7.64h-1.17c0,0-3.68-6.49-12.39-6.49v6.03
			c9.96,0,13.02-7.18,13.02-7.18h1.17c0,0-2.43,6.98-11.84,7.64c9.42,0.67,11.84,7.65,11.84,7.65h-1.17c0,0-3.06-7.18-13.02-7.18
			v5.99c8.71,0,12.39-6.45,12.39-6.45h1.17c0,0-3.93,7.65-14.56,7.65V599.93z"/>
	</g>
	<g>
		<path class="st0" d="M119,621.66c0,0-4.77-0.37-6.78-2.12c2.01-1.76,6.78-2.13,6.78-2.13V621.66z"/>
		<path class="st0" d="M119,624.08c0,0-4.77,0.37-6.78,2.12c2.01,1.76,6.78,2.12,6.78,2.12V624.08z"/>
		<path class="st1" d="M120,615.22c-10.63,0-14.57,7.64-14.57,7.64h1.17c0,0,3.68-6.49,12.39-6.49v6.03
			c-9.96,0-13.02-7.18-13.02-7.18h-1.17c0,0,2.43,6.98,11.84,7.64c-9.42,0.67-11.84,7.65-11.84,7.65h1.17c0,0,3.06-7.18,13.02-7.18
			v5.99c-8.71,0-12.39-6.45-12.39-6.45h-1.17c0,0,3.93,7.65,14.57,7.65V615.22z"/>
	</g>
	<g>
		<path class="st0" d="M381.83,621.66c0,0,4.77-0.37,6.78-2.12c-2.01-1.76-6.78-2.13-6.78-2.13V621.66z"/>
		<path class="st0" d="M381.83,624.08c0,0,4.77,0.37,6.78,2.12c-2.01,1.76-6.78,2.12-6.78,2.12V624.08z"/>
		<path class="st1" d="M380.82,615.22c10.63,0,14.56,7.64,14.56,7.64h-1.17c0,0-3.68-6.49-12.39-6.49v6.03
			c9.96,0,13.02-7.18,13.02-7.18h1.17c0,0-2.43,6.98-11.84,7.64c9.42,0.67,11.84,7.65,11.84,7.65h-1.17c0,0-3.06-7.18-13.02-7.18
			v5.99c8.71,0,12.39-6.45,12.39-6.45h1.17c0,0-3.93,7.65-14.56,7.65V615.22z"/>
	</g>
	<g>
		<path class="st0" d="M119,636.95c0,0-4.77-0.37-6.78-2.12c2.01-1.76,6.78-2.13,6.78-2.13V636.95z"/>
		<path class="st0" d="M119,639.38c0,0-4.77,0.37-6.78,2.12c2.01,1.76,6.78,2.12,6.78,2.12V639.38z"/>
		<path class="st1" d="M120,630.52c-10.63,0-14.57,7.64-14.57,7.64h1.17c0,0,3.68-6.49,12.39-6.49v6.03
			c-9.96,0-13.02-7.18-13.02-7.18h-1.17c0,0,2.43,6.98,11.84,7.64c-9.42,0.67-11.84,7.65-11.84,7.65h1.17c0,0,3.06-7.18,13.02-7.18
			v5.99c-8.71,0-12.39-6.45-12.39-6.45h-1.17c0,0,3.93,7.65,14.57,7.65V630.52z"/>
	</g>
	<g>
		<path class="st0" d="M381.83,636.95c0,0,4.77-0.37,6.78-2.12c-2.01-1.76-6.78-2.13-6.78-2.13V636.95z"/>
		<path class="st0" d="M381.83,639.38c0,0,4.77,0.37,6.78,2.12c-2.01,1.76-6.78,2.12-6.78,2.12V639.38z"/>
		<path class="st1" d="M380.82,630.52c10.63,0,14.56,7.64,14.56,7.64h-1.17c0,0-3.68-6.49-12.39-6.49v6.03
			c9.96,0,13.02-7.18,13.02-7.18h1.17c0,0-2.43,6.98-11.84,7.64c9.42,0.67,11.84,7.65,11.84,7.65h-1.17c0,0-3.06-7.18-13.02-7.18
			v5.99c8.71,0,12.39-6.45,12.39-6.45h1.17c0,0-3.93,7.65-14.56,7.65V630.52z"/>
	</g>
	<g>
		<path class="st0" d="M119,652.24c0,0-4.77-0.37-6.78-2.12c2.01-1.76,6.78-2.12,6.78-2.12V652.24z"/>
		<path class="st0" d="M119,654.67c0,0-4.77,0.37-6.78,2.12c2.01,1.76,6.78,2.12,6.78,2.12V654.67z"/>
		<path class="st1" d="M120,645.81c-10.63,0-14.57,7.65-14.57,7.65h1.17c0,0,3.68-6.49,12.39-6.49v6.03
			c-9.96,0-13.02-7.19-13.02-7.19h-1.17c0,0,2.43,6.98,11.84,7.65c-9.42,0.67-11.84,7.65-11.84,7.65h1.17c0,0,3.06-7.18,13.02-7.18
			v5.99c-8.71,0-12.39-6.45-12.39-6.45h-1.17c0,0,3.93,7.65,14.57,7.65V645.81z"/>
	</g>
	<g>
		<path class="st0" d="M381.83,652.24c0,0,4.77-0.37,6.78-2.12c-2.01-1.76-6.78-2.12-6.78-2.12V652.24z"/>
		<path class="st0" d="M381.83,654.67c0,0,4.77,0.37,6.78,2.12c-2.01,1.76-6.78,2.12-6.78,2.12V654.67z"/>
		<path class="st1" d="M380.82,645.81c10.63,0,14.56,7.65,14.56,7.65h-1.17c0,0-3.68-6.49-12.39-6.49v6.03
			c9.96,0,13.02-7.19,13.02-7.19h1.17c0,0-2.43,6.98-11.84,7.65c9.42,0.67,11.84,7.65,11.84,7.65h-1.17c0,0-3.06-7.18-13.02-7.18
			v5.99c8.71,0,12.39-6.45,12.39-6.45h1.17c0,0-3.93,7.65-14.56,7.65V645.81z"/>
	</g>
	<g>
		<path class="st0" d="M119,667.53c0,0-4.77-0.37-6.78-2.12c2.01-1.76,6.78-2.12,6.78-2.12V667.53z"/>
		<path class="st0" d="M119,669.96c0,0-4.77,0.37-6.78,2.12c2.01,1.76,6.78,2.12,6.78,2.12V669.96z"/>
		<path class="st1" d="M120,661.1c-10.63,0-14.57,7.65-14.57,7.65h1.17c0,0,3.68-6.49,12.39-6.49v6.03
			c-9.96,0-13.02-7.19-13.02-7.19h-1.17c0,0,2.43,6.98,11.84,7.65c-9.42,0.67-11.84,7.64-11.84,7.64h1.17c0,0,3.06-7.18,13.02-7.18
			v5.99c-8.71,0-12.39-6.45-12.39-6.45h-1.17c0,0,3.93,7.64,14.57,7.64V661.1z"/>
	</g>
	<g>
		<path class="st0" d="M381.83,667.53c0,0,4.77-0.37,6.78-2.12c-2.01-1.76-6.78-2.12-6.78-2.12V667.53z"/>
		<path class="st0" d="M381.83,669.96c0,0,4.77,0.37,6.78,2.12c-2.01,1.76-6.78,2.12-6.78,2.12V669.96z"/>
		<path class="st1" d="M380.82,661.1c10.63,0,14.56,7.65,14.56,7.65h-1.17c0,0-3.68-6.49-12.39-6.49v6.03
			c9.96,0,13.02-7.19,13.02-7.19h1.17c0,0-2.43,6.98-11.84,7.65c9.42,0.67,11.84,7.64,11.84,7.64h-1.17c0,0-3.06-7.18-13.02-7.18
			v5.99c8.71,0,12.39-6.45,12.39-6.45h1.17c0,0-3.93,7.64-14.56,7.64V661.1z"/>
	</g>
	<g>
		<path class="st2" d="M380.78,324.67c10.63,0,14.56-7.64,14.56-7.64s-0.7-3.11-4.21-3.11l-0.19,0.89c2.87,0,3.24,2.22,3.24,2.22
			s-3.77,6.35-12.47,6.35c0-8.71,6.36-12.49,6.36-12.49s2.22,0.36,2.22,3.24l0.89-0.2c0-3.51-3.11-4.21-3.11-4.21
			s-7.65,3.93-7.65,14.57v0.38H380.78z"/>
		<path class="st3" d="M381.42,323.66c9.49-1.92,10.07-10.07,10.07-10.07S383.34,314.18,381.42,323.66z"/>
		<path class="st1" d="M386.89,318.17c5.92,1.83,7.91,6.5,7.91,6.5h1.17c0,0-1.83-5.29-8.48-7.11c-1.83-6.61-7.07-8.47-7.07-8.47
			v1.17C380.42,310.26,385.05,312.28,386.89,318.17z"/>
	</g>
	<g>
		<path class="st0" d="M129.28,677.78c0,0,0.37,4.77,2.12,6.78c1.76-2.01,2.13-6.78,2.13-6.78H129.28z"/>
		<path class="st0" d="M126.86,677.78c0,0-0.37,4.77-2.12,6.78c-1.76-2.01-2.13-6.78-2.13-6.78H126.86z"/>
		<path class="st1" d="M135.71,676.77c0,10.63-7.64,14.57-7.64,14.57v-1.17c0,0,6.49-3.68,6.49-12.39h-6.03
			c0,9.96,7.18,13.02,7.18,13.02v1.17c0,0-6.98-2.43-7.64-11.84c-0.67,9.42-7.65,11.84-7.65,11.84v-1.17c0,0,7.18-3.05,7.18-13.02
			h-5.99c0,8.71,6.45,12.39,6.45,12.39v1.17c0,0-7.65-3.93-7.65-14.57H135.71z"/>
	</g>
	<g>
		<path class="st0" d="M144.57,677.78c0,0,0.37,4.77,2.12,6.78c1.76-2.01,2.12-6.78,2.12-6.78H144.57z"/>
		<path class="st0" d="M142.15,677.78c0,0-0.37,4.77-2.12,6.78c-1.76-2.01-2.12-6.78-2.12-6.78H142.15z"/>
		<path class="st1" d="M151.01,676.77c0,10.63-7.65,14.57-7.65,14.57v-1.17c0,0,6.49-3.68,6.49-12.39h-6.03
			c0,9.96,7.18,13.02,7.18,13.02v1.17c0,0-6.98-2.43-7.65-11.84c-0.67,9.42-7.64,11.84-7.64,11.84v-1.17c0,0,7.18-3.05,7.18-13.02
			h-5.99c0,8.71,6.45,12.39,6.45,12.39v1.17c0,0-7.64-3.93-7.64-14.57H151.01z"/>
	</g>
	<g>
		<path class="st0" d="M159.87,677.78c0,0,0.37,4.77,2.12,6.78c1.76-2.01,2.12-6.78,2.12-6.78H159.87z"/>
		<path class="st0" d="M157.44,677.78c0,0-0.37,4.77-2.12,6.78c-1.76-2.01-2.12-6.78-2.12-6.78H157.44z"/>
		<path class="st1" d="M166.3,676.77c0,10.63-7.64,14.57-7.64,14.57v-1.17c0,0,6.49-3.68,6.49-12.39h-6.03
			c0,9.96,7.18,13.02,7.18,13.02v1.17c0,0-6.97-2.43-7.64-11.84c-0.67,9.42-7.65,11.84-7.65,11.84v-1.17c0,0,7.19-3.05,7.19-13.02
			h-5.99c0,8.71,6.45,12.39,6.45,12.39v1.17c0,0-7.65-3.93-7.65-14.57H166.3z"/>
	</g>
	<g>
		<path class="st0" d="M175.16,677.78c0,0,0.37,4.77,2.12,6.78c1.76-2.01,2.12-6.78,2.12-6.78H175.16z"/>
		<path class="st0" d="M172.73,677.78c0,0-0.37,4.77-2.12,6.78c-1.76-2.01-2.12-6.78-2.12-6.78H172.73z"/>
		<path class="st1" d="M181.59,676.77c0,10.63-7.64,14.57-7.64,14.57v-1.17c0,0,6.49-3.68,6.49-12.39h-6.03
			c0,9.96,7.18,13.02,7.18,13.02v1.17c0,0-6.97-2.43-7.64-11.84c-0.67,9.42-7.65,11.84-7.65,11.84v-1.17c0,0,7.19-3.05,7.19-13.02
			h-5.99c0,8.71,6.45,12.39,6.45,12.39v1.17c0,0-7.65-3.93-7.65-14.57H181.59z"/>
	</g>
	<g>
		<path class="st0" d="M190.45,677.78c0,0,0.37,4.77,2.12,6.78c1.76-2.01,2.12-6.78,2.12-6.78H190.45z"/>
		<path class="st0" d="M188.03,677.78c0,0-0.37,4.77-2.12,6.78c-1.76-2.01-2.12-6.78-2.12-6.78H188.03z"/>
		<path class="st1" d="M196.88,676.77c0,10.63-7.64,14.57-7.64,14.57v-1.17c0,0,6.49-3.68,6.49-12.39h-6.03
			c0,9.96,7.18,13.02,7.18,13.02v1.17c0,0-6.98-2.43-7.64-11.84c-0.67,9.42-7.65,11.84-7.65,11.84v-1.17c0,0,7.18-3.05,7.18-13.02
			h-5.98c0,8.71,6.45,12.39,6.45,12.39v1.17c0,0-7.65-3.93-7.65-14.57H196.88z"/>
	</g>
	<g>
		<path class="st0" d="M205.75,677.78c0,0,0.37,4.77,2.12,6.78c1.76-2.01,2.12-6.78,2.12-6.78H205.75z"/>
		<path class="st0" d="M203.32,677.78c0,0-0.37,4.77-2.12,6.78c-1.76-2.01-2.12-6.78-2.12-6.78H203.32z"/>
		<path class="st1" d="M212.18,676.77c0,10.63-7.64,14.57-7.64,14.57v-1.17c0,0,6.49-3.68,6.49-12.39h-6.03
			c0,9.96,7.18,13.02,7.18,13.02v1.17c0,0-6.98-2.43-7.64-11.84c-0.67,9.42-7.65,11.84-7.65,11.84v-1.17c0,0,7.18-3.05,7.18-13.02
			h-5.99c0,8.71,6.45,12.39,6.45,12.39v1.17c0,0-7.65-3.93-7.65-14.57H212.18z"/>
	</g>
	<g>
		<path class="st0" d="M221.04,677.78c0,0,0.37,4.77,2.12,6.78c1.76-2.01,2.12-6.78,2.12-6.78H221.04z"/>
		<path class="st0" d="M218.61,677.78c0,0-0.37,4.77-2.12,6.78c-1.76-2.01-2.12-6.78-2.12-6.78H218.61z"/>
		<path class="st1" d="M227.47,676.77c0,10.63-7.65,14.57-7.65,14.57v-1.17c0,0,6.49-3.68,6.49-12.39h-6.03
			c0,9.96,7.18,13.02,7.18,13.02v1.17c0,0-6.98-2.43-7.65-11.84c-0.67,9.42-7.65,11.84-7.65,11.84v-1.17c0,0,7.19-3.05,7.19-13.02
			h-5.99c0,8.71,6.45,12.39,6.45,12.39v1.17c0,0-7.65-3.93-7.65-14.57H227.47z"/>
	</g>
	<g>
		<path class="st0" d="M236.33,677.78c0,0,0.37,4.77,2.12,6.78c1.76-2.01,2.12-6.78,2.12-6.78H236.33z"/>
		<path class="st0" d="M233.9,677.78c0,0-0.37,4.77-2.12,6.78c-1.76-2.01-2.12-6.78-2.12-6.78H233.9z"/>
		<path class="st1" d="M242.76,676.77c0,10.63-7.65,14.57-7.65,14.57v-1.17c0,0,6.49-3.68,6.49-12.39h-6.03
			c0,9.96,7.19,13.02,7.19,13.02v1.17c0,0-6.98-2.43-7.65-11.84c-0.67,9.42-7.65,11.84-7.65,11.84v-1.17c0,0,7.19-3.05,7.19-13.02
			h-5.99c0,8.71,6.45,12.39,6.45,12.39v1.17c0,0-7.65-3.93-7.65-14.57H242.76z"/>
	</g>
	<g>
		<path class="st0" d="M251.62,677.78c0,0,0.37,4.77,2.12,6.78c1.76-2.01,2.12-6.78,2.12-6.78H251.62z"/>
		<path class="st0" d="M249.2,677.78c0,0-0.37,4.77-2.12,6.78c-1.76-2.01-2.12-6.78-2.12-6.78H249.2z"/>
		<path class="st1" d="M258.06,676.77c0,10.63-7.64,14.57-7.64,14.57v-1.17c0,0,6.49-3.68,6.49-12.39h-6.03
			c0,9.96,7.18,13.02,7.18,13.02v1.17c0,0-6.97-2.43-7.64-11.84c-0.67,9.42-7.65,11.84-7.65,11.84v-1.17c0,0,7.19-3.05,7.19-13.02
			h-5.99c0,8.71,6.45,12.39,6.45,12.39v1.17c0,0-7.65-3.93-7.65-14.57H258.06z"/>
	</g>
	<g>
		<path class="st0" d="M266.92,677.78c0,0,0.37,4.77,2.12,6.78c1.76-2.01,2.12-6.78,2.12-6.78H266.92z"/>
		<path class="st0" d="M264.49,677.78c0,0-0.37,4.77-2.12,6.78c-1.76-2.01-2.12-6.78-2.12-6.78H264.49z"/>
		<path class="st1" d="M273.35,676.77c0,10.63-7.64,14.57-7.64,14.57v-1.17c0,0,6.49-3.68,6.49-12.39h-6.03
			c0,9.96,7.18,13.02,7.18,13.02v1.17c0,0-6.98-2.43-7.64-11.84c-0.67,9.42-7.65,11.84-7.65,11.84v-1.17c0,0,7.18-3.05,7.18-13.02
			h-5.99c0,8.71,6.45,12.39,6.45,12.39v1.17c0,0-7.65-3.93-7.65-14.57H273.35z"/>
	</g>
	<g>
		<path class="st0" d="M282.21,677.78c0,0,0.37,4.77,2.12,6.78c1.76-2.01,2.12-6.78,2.12-6.78H282.21z"/>
		<path class="st0" d="M279.78,677.78c0,0-0.37,4.77-2.12,6.78c-1.76-2.01-2.12-6.78-2.12-6.78H279.78z"/>
		<path class="st1" d="M288.64,676.77c0,10.63-7.64,14.57-7.64,14.57v-1.17c0,0,6.49-3.68,6.49-12.39h-6.03
			c0,9.96,7.18,13.02,7.18,13.02v1.17c0,0-6.98-2.43-7.64-11.84c-0.67,9.42-7.65,11.84-7.65,11.84v-1.17c0,0,7.18-3.05,7.18-13.02
			h-5.99c0,8.71,6.45,12.39,6.45,12.39v1.17c0,0-7.65-3.93-7.65-14.57H288.64z"/>
	</g>
	<g>
		<path class="st0" d="M297.5,677.78c0,0,0.37,4.77,2.12,6.78c1.76-2.01,2.12-6.78,2.12-6.78H297.5z"/>
		<path class="st0" d="M295.07,677.78c0,0-0.37,4.77-2.12,6.78c-1.76-2.01-2.12-6.78-2.12-6.78H295.07z"/>
		<path class="st1" d="M303.93,676.77c0,10.63-7.65,14.57-7.65,14.57v-1.17c0,0,6.49-3.68,6.49-12.39h-6.03
			c0,9.96,7.18,13.02,7.18,13.02v1.17c0,0-6.98-2.43-7.65-11.84c-0.67,9.42-7.64,11.84-7.64,11.84v-1.17c0,0,7.18-3.05,7.18-13.02
			h-5.99c0,8.71,6.45,12.39,6.45,12.39v1.17c0,0-7.64-3.93-7.64-14.57H303.93z"/>
	</g>
	<g>
		<path class="st0" d="M312.8,677.78c0,0,0.37,4.77,2.12,6.78c1.76-2.01,2.12-6.78,2.12-6.78H312.8z"/>
		<path class="st0" d="M310.37,677.78c0,0-0.37,4.77-2.12,6.78c-1.76-2.01-2.12-6.78-2.12-6.78H310.37z"/>
		<path class="st1" d="M319.23,676.77c0,10.63-7.65,14.57-7.65,14.57v-1.17c0,0,6.49-3.68,6.49-12.39h-6.03
			c0,9.96,7.18,13.02,7.18,13.02v1.17c0,0-6.98-2.43-7.65-11.84c-0.67,9.42-7.65,11.84-7.65,11.84v-1.17c0,0,7.19-3.05,7.19-13.02
			h-5.99c0,8.71,6.45,12.39,6.45,12.39v1.17c0,0-7.65-3.93-7.65-14.57H319.23z"/>
	</g>
	<g>
		<path class="st0" d="M328.09,677.78c0,0,0.37,4.77,2.12,6.78c1.76-2.01,2.12-6.78,2.12-6.78H328.09z"/>
		<path class="st0" d="M325.66,677.78c0,0-0.37,4.77-2.12,6.78c-1.76-2.01-2.12-6.78-2.12-6.78H325.66z"/>
		<path class="st1" d="M334.52,676.77c0,10.63-7.64,14.57-7.64,14.57v-1.17c0,0,6.49-3.68,6.49-12.39h-6.03
			c0,9.96,7.18,13.02,7.18,13.02v1.17c0,0-6.97-2.43-7.64-11.84c-0.67,9.42-7.65,11.84-7.65,11.84v-1.17c0,0,7.19-3.05,7.19-13.02
			h-5.99c0,8.71,6.45,12.39,6.45,12.39v1.17c0,0-7.65-3.93-7.65-14.57H334.52z"/>
	</g>
	<g>
		<path class="st0" d="M343.38,677.78c0,0,0.37,4.77,2.12,6.78c1.76-2.01,2.12-6.78,2.12-6.78H343.38z"/>
		<path class="st0" d="M340.95,677.78c0,0-0.37,4.77-2.12,6.78c-1.76-2.01-2.12-6.78-2.12-6.78H340.95z"/>
		<path class="st1" d="M349.81,676.77c0,10.63-7.64,14.57-7.64,14.57v-1.17c0,0,6.49-3.68,6.49-12.39h-6.03
			c0,9.96,7.18,13.02,7.18,13.02v1.17c0,0-6.98-2.43-7.64-11.84c-0.67,9.42-7.65,11.84-7.65,11.84v-1.17c0,0,7.18-3.05,7.18-13.02
			h-5.98c0,8.71,6.45,12.39,6.45,12.39v1.17c0,0-7.65-3.93-7.65-14.57H349.81z"/>
	</g>
	<g>
		<path class="st0" d="M358.67,677.78c0,0,0.37,4.77,2.12,6.78c1.76-2.01,2.12-6.78,2.12-6.78H358.67z"/>
		<path class="st0" d="M356.25,677.78c0,0-0.37,4.77-2.12,6.78c-1.76-2.01-2.12-6.78-2.12-6.78H356.25z"/>
		<path class="st1" d="M365.11,676.77c0,10.63-7.64,14.57-7.64,14.57v-1.17c0,0,6.49-3.68,6.49-12.39h-6.03
			c0,9.96,7.18,13.02,7.18,13.02v1.17c0,0-6.98-2.43-7.64-11.84c-0.67,9.42-7.65,11.84-7.65,11.84v-1.17c0,0,7.18-3.05,7.18-13.02
			h-5.99c0,8.71,6.45,12.39,6.45,12.39v1.17c0,0-7.65-3.93-7.65-14.57H365.11z"/>
	</g>
	<g>
		<path class="st0" d="M373.97,677.78c0,0,0.37,4.77,2.12,6.78c1.76-2.01,2.12-6.78,2.12-6.78H373.97z"/>
		<path class="st0" d="M371.54,677.78c0,0-0.37,4.77-2.12,6.78c-1.76-2.01-2.12-6.78-2.12-6.78H371.54z"/>
		<path class="st1" d="M380.4,676.77c0,10.63-7.65,14.57-7.65,14.57v-1.17c0,0,6.49-3.68,6.49-12.39h-6.03
			c0,9.96,7.18,13.02,7.18,13.02v1.17c0,0-6.98-2.43-7.65-11.84c-0.67,9.42-7.65,11.84-7.65,11.84v-1.17c0,0,7.19-3.05,7.19-13.02
			h-5.99c0,8.71,6.45,12.39,6.45,12.39v1.17c0,0-7.65-3.93-7.65-14.57H380.4z"/>
	</g>
	<g>
		<path class="st2" d="M120.04,676.39c-10.63,0-14.57,7.64-14.57,7.64s0.7,3.11,4.21,3.11l0.19-0.89c-2.87,0-3.24-2.22-3.24-2.22
			s3.77-6.35,12.47-6.35c0,8.71-6.36,12.49-6.36,12.49s-2.22-0.36-2.22-3.24l-0.89,0.2c0,3.52,3.11,4.21,3.11,4.21
			s7.65-3.93,7.65-14.57v-0.38H120.04z"/>
		<path class="st3" d="M119.41,677.4c-9.49,1.92-10.07,10.07-10.07,10.07S117.48,686.88,119.41,677.4z"/>
		<path class="st1" d="M113.94,682.89c-5.92-1.83-7.91-6.5-7.91-6.5h-1.17c0,0,1.83,5.29,8.48,7.11c1.83,6.61,7.07,8.47,7.07,8.47
			v-1.17C120.4,690.8,115.77,688.78,113.94,682.89z"/>
	</g>
	<g>
		<path class="st2" d="M380.78,676.39c10.63,0,14.56,7.64,14.56,7.64s-0.7,3.11-4.21,3.11l-0.19-0.89c2.87,0,3.24-2.22,3.24-2.22
			s-3.77-6.35-12.47-6.35c0,8.71,6.36,12.49,6.36,12.49s2.22-0.36,2.22-3.24l0.89,0.2c0,3.52-3.11,4.21-3.11,4.21
			s-7.65-3.93-7.65-14.57v-0.38H380.78z"/>
		<path class="st3" d="M381.42,677.4c9.49,1.92,10.07,10.07,10.07,10.07S383.34,686.88,381.42,677.4z"/>
		<path class="st1" d="M386.89,682.89c5.92-1.83,7.91-6.5,7.91-6.5h1.17c0,0-1.83,5.29-8.48,7.11c-1.83,6.61-7.07,8.47-7.07,8.47
			v-1.17C380.42,690.8,385.05,688.78,386.89,682.89z"/>
	</g>
</g>
</svg>
